<?xml version="1.0" encoding="UTF-8" standalone="no"?>
<!-- Created with Inkscape (http://www.inkscape.org/) -->

<svg
   xmlns:dc="http://purl.org/dc/elements/1.1/"
   xmlns:cc="http://creativecommons.org/ns#"
   xmlns:rdf="http://www.w3.org/1999/02/22-rdf-syntax-ns#"
   xmlns:svg="http://www.w3.org/2000/svg"
   xmlns="http://www.w3.org/2000/svg"
   xmlns:sodipodi="http://sodipodi.sourceforge.net/DTD/sodipodi-0.dtd"
   xmlns:inkscape="http://www.inkscape.org/namespaces/inkscape"
   width="210mm"
   height="297mm"
   viewBox="0 0 210 297"
   version="1.1"
   id="svg5010"
   inkscape:version="0.92.1 r15371"
   sodipodi:docname="fundo.svg">
  <defs
     id="defs5004" />
  <sodipodi:namedview
     id="base"
     pagecolor="#ffffff"
     bordercolor="#666666"
     borderopacity="1.0"
     inkscape:pageopacity="0.0"
     inkscape:pageshadow="2"
     inkscape:zoom="0.7"
     inkscape:cx="386.93516"
     inkscape:cy="488.20935"
     inkscape:document-units="mm"
     inkscape:current-layer="layer1"
     showgrid="false"
     inkscape:window-width="1280"
     inkscape:window-height="692"
     inkscape:window-x="-1"
     inkscape:window-y="1"
     inkscape:window-maximized="0" />
  <metadata
     id="metadata5007">
    <rdf:RDF>
      <cc:Work
         rdf:about="">
        <dc:format>image/svg+xml</dc:format>
        <dc:type
           rdf:resource="http://purl.org/dc/dcmitype/StillImage" />
        <dc:title></dc:title>
      </cc:Work>
    </rdf:RDF>
  </metadata>
  <g
     inkscape:label="Camada 1"
     inkscape:groupmode="layer"
     id="layer1">
    <rect
       style="opacity:1;fill:#550000;fill-opacity:1;stroke-width:0.26458332"
       id="rect5012"
       width="317.5"
       height="190.5"
       x="-46.113087"
       y="46.023808" />
    <g
       id="g5563">
      <rect
         style="opacity:1;fill:#800000;fill-opacity:1;stroke-width:0.26458332"
         id="rect5557"
         width="43.234722"
         height="190.5"
         x="-46.113087"
         y="46.023808" />
      <rect
         y="58.406406"
         x="-39.347504"
         height="167.58209"
         width="30.016684"
         id="rect5559"
         style="opacity:1;fill:#aa0000;fill-opacity:1;stroke-width:0.26458332" />
    </g>
    <g
       id="g5569"
       transform="translate(52.978654,0.06681738)"
       style="stroke-width:1">
      <rect
         y="46.023808"
         x="-46.113087"
         height="190.5"
         width="43.234722"
         id="rect5565"
         style="opacity:1;fill:#800000;fill-opacity:1;stroke-width:0.26458332" />
      <rect
         style="opacity:1;fill:#aa0000;fill-opacity:1;stroke-width:0.26458332"
         id="rect5567"
         width="30.016684"
         height="167.58209"
         x="-39.347504"
         y="58.406406" />
    </g>
    <g
       transform="translate(110.64958)"
       id="g5575">
      <rect
         style="opacity:1;fill:#800000;fill-opacity:1;stroke-width:0.26458332"
         id="rect5571"
         width="43.234722"
         height="190.5"
         x="-46.113087"
         y="46.023808" />
      <rect
         y="58.406406"
         x="-39.347504"
         height="167.58209"
         width="30.016684"
         id="rect5573"
         style="opacity:1;fill:#aa0000;fill-opacity:1;stroke-width:0.26458332" />
    </g>
    <g
       id="g5581"
       transform="translate(164.25449)">
      <rect
         y="46.023808"
         x="-46.113087"
         height="190.5"
         width="43.234722"
         id="rect5577"
         style="opacity:1;fill:#800000;fill-opacity:1;stroke-width:0.26458332" />
      <rect
         style="opacity:1;fill:#aa0000;fill-opacity:1;stroke-width:0.26458332"
         id="rect5579"
         width="30.016684"
         height="167.58209"
         x="-39.347504"
         y="58.406406" />
    </g>
    <g
       transform="translate(220.23009)"
       id="g5587">
      <rect
         style="opacity:1;fill:#800000;fill-opacity:1;stroke-width:0.26458332"
         id="rect5583"
         width="43.234722"
         height="190.5"
         x="-46.113087"
         y="46.023808" />
      <rect
         y="58.406406"
         x="-39.347504"
         height="167.58209"
         width="30.016684"
         id="rect5585"
         style="opacity:1;fill:#aa0000;fill-opacity:1;stroke-width:0.26458332" />
    </g>
    <g
       id="g5593"
       transform="translate(274.26527)">
      <rect
         y="46.023808"
         x="-46.113087"
         height="190.5"
         width="43.234722"
         id="rect5589"
         style="opacity:1;fill:#800000;fill-opacity:1;stroke-width:0.26458332" />
      <rect
         style="opacity:1;fill:#aa0000;fill-opacity:1;stroke-width:0.26458332"
         id="rect5591"
         width="30.016684"
         height="167.58209"
         x="-39.347504"
         y="58.406406" />
    </g>
    <g
       id="g5599"
       transform="matrix(-0.23023359,-0.41599235,0.41599235,-0.23023359,-65.30233,99.424823)"
       style="stroke-width:2.10325003">
      <rect
         y="46.023808"
         x="-46.113087"
         height="190.5"
         width="43.234722"
         id="rect5595"
         style="opacity:1;fill:#800000;fill-opacity:1;stroke-width:0.55648482" />
      <rect
         style="opacity:1;fill:#aa0000;fill-opacity:1;stroke-width:0.55648482"
         id="rect5597"
         width="30.016684"
         height="167.58209"
         x="-39.347504"
         y="58.406406" />
    </g>
    <g
       style="stroke-width:2.10325003"
       transform="matrix(-0.23023359,-0.41599235,0.41599235,-0.23023359,161.20797,227.36925)"
       id="g5605">
      <rect
         style="opacity:1;fill:#800000;fill-opacity:1;stroke-width:0.55648482"
         id="rect5601"
         width="43.234722"
         height="190.5"
         x="-46.113087"
         y="46.023808" />
      <rect
         y="58.406406"
         x="-39.347504"
         height="167.58209"
         width="30.016684"
         id="rect5603"
         style="opacity:1;fill:#aa0000;fill-opacity:1;stroke-width:0.55648482" />
    </g>
    <g
       id="g5611"
       transform="matrix(7.5156445,0,0,0.09928064,299.3874,116.82454)"
       style="stroke-width:1.15766943">
      <rect
         y="46.023808"
         x="-46.113087"
         height="190.5"
         width="42.379761"
         id="rect5607"
         style="opacity:1;fill:#800000;fill-opacity:1;stroke-width:0.30630004" />
      <rect
         style="opacity:1;fill:#aa0000;fill-opacity:1;stroke-width:0.30630001"
         id="rect5609"
         width="39.801041"
         height="167.58209"
         x="-45.108505"
         y="58.406406" />
    </g>
    <path
       style="opacity:0.66199999;fill:#2b0000;fill-opacity:1;stroke:#800000;stroke-width:0.26458332;stroke-opacity:0.03999999"
       id="path5639"
       sodipodi:type="arc"
       sodipodi:cx="81.825775"
       sodipodi:cy="184.86252"
       sodipodi:rx="3.2484298"
       sodipodi:ry="4.0982847"
       sodipodi:start="6.2592743"
       sodipodi:end="6.2592045"
       d="m 85.073276,184.76453 a 3.2484298,4.0982847 0 0 1 -3.169778,4.1951 3.2484298,4.0982847 0 0 1 -3.325221,-3.99898 3.2484298,4.0982847 0 0 1 3.169662,-4.19524 3.2484298,4.0982847 0 0 1 3.325332,3.99884 l -3.247496,0.0983 z" />
    <path
       d="m 197.86101,93.89289 a 3.2484298,4.0982847 0 0 1 -3.16978,4.195097 3.2484298,4.0982847 0 0 1 -3.32522,-3.998984 3.2484298,4.0982847 0 0 1 3.16966,-4.195236 3.2484298,4.0982847 0 0 1 3.32534,3.998837 l -3.2475,0.09827 z"
       sodipodi:end="6.2592045"
       sodipodi:start="6.2592743"
       sodipodi:ry="4.0982847"
       sodipodi:rx="3.2484298"
       sodipodi:cy="93.990875"
       sodipodi:cx="194.61351"
       sodipodi:type="arc"
       id="path5641"
       style="opacity:0.66199999;fill:#2b0000;fill-opacity:1;stroke:#800000;stroke-width:0.26458332;stroke-opacity:0.03999999" />
    <path
       style="opacity:0.66199999;fill:#2b0000;fill-opacity:1;stroke:#800000;stroke-width:0.26458332;stroke-opacity:0.03999999"
       id="path5643"
       sodipodi:type="arc"
       sodipodi:cx="-2.0968621"
       sodipodi:cy="77.420166"
       sodipodi:rx="3.2484298"
       sodipodi:ry="4.0982847"
       sodipodi:start="6.2592743"
       sodipodi:end="6.2592045"
       d="m 1.1506391,77.322181 a 3.2484298,4.0982847 0 0 1 -3.1697787,4.195097 3.2484298,4.0982847 0 0 1 -3.325221,-3.998984 3.2484298,4.0982847 0 0 1 3.1696627,-4.195236 3.2484298,4.0982847 0 0 1 3.3253316,3.998837 l -3.2474958,0.09827 z" />
    <path
       d="m 228.86428,205.61155 a 3.2484298,4.0982847 0 0 1 -3.16978,4.1951 3.2484298,4.0982847 0 0 1 -3.32522,-3.99899 3.2484298,4.0982847 0 0 1 3.16966,-4.19523 3.2484298,4.0982847 0 0 1 3.32533,3.99883 l -3.24749,0.0983 z"
       sodipodi:end="6.2592045"
       sodipodi:start="6.2592743"
       sodipodi:ry="4.0982847"
       sodipodi:rx="3.2484298"
       sodipodi:cy="205.70953"
       sodipodi:cx="225.61678"
       sodipodi:type="arc"
       id="path5645"
       style="opacity:0.66199999;fill:#2b0000;fill-opacity:1;stroke:#800000;stroke-width:0.26458332;stroke-opacity:0.03999999" />
    <path
       style="opacity:0.66199999;fill:#2b0000;fill-opacity:1;stroke:#800000;stroke-width:0.26458332;stroke-opacity:0.03999999"
       id="path5647"
       sodipodi:type="arc"
       sodipodi:cx="59.37513"
       sodipodi:cy="132.47768"
       sodipodi:rx="3.2484298"
       sodipodi:ry="4.0982847"
       sodipodi:start="6.2592743"
       sodipodi:end="6.2592045"
       d="m 62.622631,132.37969 a 3.2484298,4.0982847 0 0 1 -3.169779,4.1951 3.2484298,4.0982847 0 0 1 -3.325221,-3.99899 3.2484298,4.0982847 0 0 1 3.169663,-4.19523 3.2484298,4.0982847 0 0 1 3.325331,3.99884 l -3.247495,0.0983 z" />
    <path
       style="opacity:0.66199999;fill:#2b0000;fill-opacity:1;stroke:#800000;stroke-width:0.26458332;stroke-opacity:0.03999999"
       id="path5653"
       sodipodi:type="arc"
       sodipodi:cx="139.65535"
       sodipodi:cy="167.34409"
       sodipodi:rx="1.2093961"
       sodipodi:ry="1.5467156"
       sodipodi:start="6.2592743"
       sodipodi:end="6.2592045"
       d="m 140.8644,167.30711 a 1.2093961,1.5467156 0 0 1 -1.18011,1.58325 1.2093961,1.5467156 0 0 1 -1.23799,-1.50924 1.2093961,1.5467156 0 0 1 1.18007,-1.58331 1.2093961,1.5467156 0 0 1 1.23803,1.50919 l -1.20905,0.0371 z" />
    <path
       d="m 139.26078,100.22246 a 1.2093961,1.5467156 0 0 1 -1.18012,1.58325 1.2093961,1.5467156 0 0 1 -1.23798,-1.50924 1.2093961,1.5467156 0 0 1 1.18007,-1.583304 1.2093961,1.5467156 0 0 1 1.23803,1.509184 l -1.20905,0.0371 z"
       sodipodi:end="6.2592045"
       sodipodi:start="6.2592743"
       sodipodi:ry="1.5467156"
       sodipodi:rx="1.2093961"
       sodipodi:cy="100.25944"
       sodipodi:cx="138.05173"
       sodipodi:type="arc"
       id="path5655"
       style="opacity:0.66199999;fill:#2b0000;fill-opacity:1;stroke:#800000;stroke-width:0.26458332;stroke-opacity:0.03999999" />
    <path
       style="opacity:0.66199999;fill:#2b0000;fill-opacity:1;stroke:#800000;stroke-width:0.26458332;stroke-opacity:0.03999999"
       id="path5657"
       sodipodi:type="arc"
       sodipodi:cx="-26.051762"
       sodipodi:cy="208.23633"
       sodipodi:rx="1.2093961"
       sodipodi:ry="1.5467156"
       sodipodi:start="6.2592743"
       sodipodi:end="6.2592045"
       d="m -24.842711,208.19935 a 1.2093961,1.5467156 0 0 1 -1.180114,1.58325 1.2093961,1.5467156 0 0 1 -1.237986,-1.50924 1.2093961,1.5467156 0 0 1 1.180071,-1.5833 1.2093961,1.5467156 0 0 1 1.238027,1.50918 l -1.209049,0.0371 z" />
  </g>
</svg>
