<?xml version="1.0" encoding="UTF-8" standalone="no"?>
<!-- Created with Inkscape (http://www.inkscape.org/) -->

<svg
   xmlns:dc="http://purl.org/dc/elements/1.1/"
   xmlns:cc="http://creativecommons.org/ns#"
   xmlns:rdf="http://www.w3.org/1999/02/22-rdf-syntax-ns#"
   xmlns:svg="http://www.w3.org/2000/svg"
   xmlns="http://www.w3.org/2000/svg"
   xmlns:sodipodi="http://sodipodi.sourceforge.net/DTD/sodipodi-0.dtd"
   xmlns:inkscape="http://www.inkscape.org/namespaces/inkscape"
   width="210mm"
   height="297mm"
   viewBox="0 0 210 297"
   version="1.1"
   id="svg4989"
   inkscape:version="0.92.1 r15371"
   sodipodi:docname="splash.svg">
  <defs
     id="defs4983" />
  <sodipodi:namedview
     id="base"
     pagecolor="#ffffff"
     bordercolor="#666666"
     borderopacity="1.0"
     inkscape:pageopacity="0.0"
     inkscape:pageshadow="2"
     inkscape:zoom="0.35"
     inkscape:cx="381.58861"
     inkscape:cy="460.29373"
     inkscape:document-units="mm"
     inkscape:current-layer="layer1"
     showgrid="false"
     inkscape:window-width="1276"
     inkscape:window-height="693"
     inkscape:window-x="-3"
     inkscape:window-y="1"
     inkscape:window-maximized="0" />
  <metadata
     id="metadata4986">
    <rdf:RDF>
      <cc:Work
         rdf:about="">
        <dc:format>image/svg+xml</dc:format>
        <dc:type
           rdf:resource="http://purl.org/dc/dcmitype/StillImage" />
        <dc:title></dc:title>
      </cc:Work>
    </rdf:RDF>
  </metadata>
  <g
     inkscape:label="Camada 1"
     inkscape:groupmode="layer"
     id="layer1">
    <path
       style="opacity:0.797;fill:#aa0000;fill-opacity:1;stroke-width:0.26458332"
       d="m 120.53805,118.39853 c -8.27126,1.73277 -16.01969,5.20042 -23.928034,8.07344 -2.53255,0.84987 -5.23967,0.50333 -7.840018,0.25173 -2.123295,-0.19575 -4.331534,-0.17913 -6.338037,0.63111 -1.48771,0.5634 -2.935831,1.42346 -3.878202,2.73213 -0.719825,1.41837 0.103307,3.21584 1.436439,3.94029 0.644122,0.37017 0.915442,1.14595 0.804078,1.85671 -0.121815,1.01459 -0.927762,1.87517 -1.915286,2.10761 -2.86911,1.26263 -5.634833,2.75596 -8.310863,4.38592 -3.475185,2.15897 -6.777263,4.67654 -9.456231,7.78745 -0.705568,0.92236 -0.979641,2.24793 -0.392031,3.29927 0.712259,1.53681 2.488353,2.43961 4.151465,2.21488 3.143422,0.13273 6.370909,-0.47534 9.440023,0.4609 1.175596,0.32926 2.465446,0.93633 2.919486,2.15866 0.366681,1.45496 -0.848455,2.94992 -2.281789,3.14532 -1.836636,0.68579 -3.716289,1.67973 -4.722159,3.44084 -1.059841,1.61686 -1.425134,3.86822 -0.367581,5.5768 1.05249,1.63691 3.01709,2.42714 4.894311,2.57781 2.271411,0.48873 4.641457,1.17831 6.961428,0.57558 3.085829,-0.7704 6.034837,-2.29726 9.278255,-2.27785 1.212373,-0.0239 2.623822,0.39435 3.186752,1.5656 0.44606,1.22227 -0.19295,2.48368 -0.8236,3.51134 -0.84178,1.44231 -1.888464,2.94887 -1.796424,4.69781 0.193523,1.68873 2.235304,2.7082 3.755624,2.06614 1.4019,-0.38249 2.89109,-0.71981 4.33296,-0.34207 1.624474,0.31051 3.008674,1.28021 4.545684,1.82822 2.47275,0.73071 5.13523,0.77995 7.49276,1.89844 1.46759,0.52411 3.20929,0.85514 4.63399,0.0306 0.99955,-0.56924 1.76598,-1.52234 2.13468,-2.60945 0.19302,0.62054 -0.19125,1.2446 -0.63272,1.65469 0.73298,-0.33684 0.97832,-1.17688 1.37477,-1.81388 0.87853,-1.99611 0.59937,-4.30681 -0.2065,-6.2767 -0.54014,-2.1772 -1.11907,-4.49419 -0.49085,-6.717 1.02993,-2.50416 4.61389,-3.4072 6.72745,-1.73158 2.56125,1.61863 5.42298,2.7845 7.75107,4.76038 0.21327,0.14378 0.45547,0.26151 0.61157,0.47351 -0.48137,0.0494 -0.89314,-0.32101 -1.37454,-0.27142 0.83379,0.22401 1.67451,0.48869 2.39068,0.9805 0.56798,0.21341 1.18037,0.26146 1.78182,0.28059 -0.43803,-0.0207 -0.8762,-0.0888 -1.29164,-0.23215 1.3015,0.24744 2.84155,0.2052 3.84435,-0.77934 0.8474,-1.09365 0.59957,-2.55243 0.8448,-3.82864 -0.12498,-2.90782 -1.10715,-5.80914 -2.90782,-8.10809 -1.82501,-2.18817 -3.98439,-4.13876 -5.35579,-6.67053 -1.5681,-2.49052 -3.00697,-5.13228 -3.67177,-8.02004 -0.0286,-2.12751 1.66408,-3.99204 3.6593,-4.5364 3.05905,-1.3165 6.23909,-2.67669 9.63015,-2.66747 0.69936,-0.003 1.54101,0.11938 2.06701,-0.45381 0.21507,-0.64618 -0.56262,-1.18478 -1.14708,-1.01834 -1.39912,-0.10345 -2.84736,-1.16608 -2.93028,-2.64623 0.026,-0.64772 0.69771,-0.98573 1.25672,-1.08916 0.53801,-0.23492 0.78266,-0.95278 0.42109,-1.43856 -0.51102,-0.90669 -1.60965,-1.14516 -2.44554,-1.64671 -4.23715,-2.13828 -9.11776,-2.90687 -13.81751,-2.30962 -1.44012,0.16418 -2.85871,0.47954 -4.277,0.75958 -1.24286,0.0438 -2.60227,-0.8989 -2.59108,-2.22693 -0.0322,-1.26915 0.90716,-2.31365 1.92806,-2.94146 1.71155,-1.46685 2.68283,-3.96341 1.92718,-6.15751 -0.17087,-0.4119 -0.46824,-0.96399 -0.99358,-0.91293 z M 103.0792,150.2364 c 4.08463,-0.028 8.16927,-0.0542 12.25393,-0.0785 -4.08465,0.0262 -8.16929,0.0524 -12.25393,0.0785 z m 33.50564,25.09083 c 0.53419,0.009 -0.13283,-0.005 -0.002,-6e-5 z"
       id="path4997"
       inkscape:connector-curvature="0" />
    <path
       inkscape:connector-curvature="0"
       id="path5002"
       d="m 118.71291,121.72683 c -7.40659,1.55163 -14.345,4.65678 -21.4266,7.22945 -2.26781,0.76103 -4.69192,0.45072 -7.02044,0.22542 -1.90132,-0.17529 -3.87871,-0.16041 -5.67546,0.56513 -1.33219,0.50451 -2.62893,1.27466 -3.47278,2.44652 -0.64458,1.27009 0.0925,2.87966 1.28628,3.52837 0.57678,0.33147 0.81973,1.02616 0.72001,1.66261 -0.10902,0.90853 -0.83077,1.67915 -1.71506,1.88728 -2.56917,1.13064 -5.04577,2.46786 -7.44206,3.92743 -3.11187,1.93326 -6.06876,4.18766 -8.46768,6.97335 -0.63181,0.82594 -0.87723,2.01294 -0.35104,2.95437 0.6378,1.37616 2.22822,2.18458 3.71746,1.98334 2.81483,0.11888 5.7049,-0.42565 8.45318,0.41272 1.0527,0.29483 2.20771,0.83844 2.61428,1.93299 0.32835,1.30287 -0.75974,2.64154 -2.04325,2.81651 -1.64463,0.6141 -3.32779,1.50414 -4.2285,3.08114 -0.94905,1.44783 -1.27616,3.46384 -0.32917,4.99381 0.94247,1.46578 2.70169,2.1734 4.38268,2.30832 2.03396,0.43765 4.15624,1.05514 6.23368,0.51541 2.76323,-0.68986 5.40396,-2.05711 8.30832,-2.03972 1.08563,-0.0214 2.34952,0.35312 2.85362,1.40193 0.39942,1.09449 -0.17279,2.22404 -0.73751,3.14426 -0.75378,1.29154 -1.69104,2.64061 -1.60863,4.20672 0.17329,1.51219 2.00163,2.42509 3.36301,1.85014 1.25535,-0.3425 2.58886,-0.64455 3.88001,-0.30631 1.45465,0.27805 2.69414,1.14638 4.07047,1.6371 2.21425,0.65432 4.5984,0.69842 6.70947,1.69998 1.31417,0.46932 2.8738,0.76575 4.14956,0.0274 0.89506,-0.50974 1.58137,-1.36319 1.91152,-2.33666 0.17285,0.55567 -0.17126,1.11449 -0.56658,1.48171 0.65636,-0.30163 0.87605,-1.05385 1.23106,-1.62426 0.78669,-1.78744 0.53672,-3.85659 -0.18492,-5.62054 -0.48367,-1.94959 -1.00208,-4.02437 -0.43953,-6.01481 0.92226,-2.24237 4.13155,-3.05101 6.02417,-1.55056 2.29349,1.44942 4.85606,2.49341 6.94078,4.26273 0.19097,0.12875 0.40785,0.23417 0.54763,0.424 -0.43105,0.0443 -0.79977,-0.28745 -1.23084,-0.24303 0.74663,0.20059 1.49945,0.43759 2.14076,0.878 0.5086,0.1911 1.05698,0.23412 1.59555,0.25125 -0.39224,-0.0185 -0.7846,-0.0795 -1.15661,-0.20789 1.16543,0.22159 2.5445,0.18376 3.44246,-0.69786 0.75881,-0.97932 0.53689,-2.2856 0.75649,-3.42839 -0.11195,-2.60384 -0.99141,-5.20187 -2.60384,-7.26049 -1.63423,-1.95941 -3.56787,-3.7061 -4.7959,-5.97319 -1.40418,-2.23017 -2.69263,-4.59576 -3.28793,-7.18164 -0.0257,-1.90509 1.49012,-3.5747 3.27676,-4.06216 2.73926,-1.17887 5.58687,-2.39688 8.62342,-2.38861 0.62625,-0.002 1.37991,0.10696 1.85093,-0.40637 0.19259,-0.57864 -0.50381,-1.06094 -1.02716,-0.91189 -1.25287,-0.0926 -2.54971,-1.04418 -2.62396,-2.3696 0.0232,-0.58 0.62478,-0.88268 1.12534,-0.9753 0.48178,-0.21036 0.70084,-0.85317 0.37707,-1.28817 -0.4576,-0.8119 -1.44137,-1.02544 -2.18988,-1.47456 -3.79421,-1.91476 -8.16459,-2.60299 -12.37304,-2.06818 -1.28957,0.14701 -2.55986,0.42941 -3.82989,0.68017 -1.11293,0.0392 -2.33023,-0.80492 -2.3202,-1.99412 -0.0288,-1.13648 0.81233,-2.07179 1.7265,-2.63397 1.53262,-1.3135 2.40237,-3.54907 1.72571,-5.51381 -0.153,-0.36883 -0.41929,-0.86322 -0.88972,-0.81749 z M 103.0792,150.2364 c 3.65763,-0.0251 7.31526,-0.0486 10.97292,-0.0703 -3.65765,0.0235 -7.31528,0.047 -10.97292,0.0703 z m 30.00299,22.46786 c 0.47835,0.009 -0.11888,-0.005 -0.001,-6e-5 z"
       style="opacity:0.797;fill:#ff0000;fill-opacity:1;stroke-width:0.26458332" />
  </g>
</svg>
